<svg xmlns="http://www.w3.org/2000/svg" width="43" height="43" viewBox="0 0 43 43">
  <g id="social-science" transform="translate(-42 -487)">
    <g id="Ellipse_65" data-name="Ellipse 65" transform="translate(42 487)" fill="#fff" stroke="#c16366" stroke-width="2">
      <circle cx="21.5" cy="21.5" r="21.5" stroke="none"/>
      <circle cx="21.5" cy="21.5" r="20.5" fill="none"/>
    </g>
    <g id="Group_1439" data-name="Group 1439" transform="translate(-106.6 88.657)">
      <path id="Path_293" data-name="Path 293" d="M826.163,506.954a14.3,14.3,0,0,0,0-20.22q-.259-.26-.519-.5a.8.8,0,0,0-.248-.153.813.813,0,0,0-.295-.035,3.342,3.342,0,0,0-1.887.637l-.012.012a2.112,2.112,0,0,0-.354.342,11.5,11.5,0,0,0-6.795-2.1h-.142a.794.794,0,0,0-.13,0,11.886,11.886,0,0,0-11.632,11.879v.035a11.456,11.456,0,0,0,2.076,6.748,2.525,2.525,0,0,0-.472.755c0,.008,0,.012,0,.012a4.782,4.782,0,0,0-.283,1.829.691.691,0,0,0,.212.507l.248.248a13.764,13.764,0,0,0,9.544,4.176v1.18h-4.8a2.159,2.159,0,0,0-1.545.625.01.01,0,0,1-.012.012,2.159,2.159,0,0,0-.625,1.545,2.195,2.195,0,0,0,2.182,2.182h13.212a2.032,2.032,0,0,0,1.522-.649.01.01,0,0,0,.012-.012,2.033,2.033,0,0,0,.649-1.522,2.2,2.2,0,0,0-2.171-2.182l-4.908-.071v-1.368A13.78,13.78,0,0,0,826.163,506.954Zm-9.744-20.574a9.992,9.992,0,0,1,6.134,2.241.49.49,0,0,0,.094.083q.414.343.8.731a10.324,10.324,0,0,1,2.289,3.374.045.045,0,0,1-.024,0v.012a6.955,6.955,0,0,1-1.309.236,3.309,3.309,0,0,1-1.475-.873,3.823,3.823,0,0,0-2.395-1.2,5.792,5.792,0,0,0-1.545.26,5.332,5.332,0,0,1-1.486.212,17.779,17.779,0,0,1-1.864-.189h-.012a5.275,5.275,0,0,0-1.168-.083q.47-.98.944-2.1A24.128,24.128,0,0,0,816.419,486.381Zm-7.774,3.055a10.089,10.089,0,0,1,6.24-3.008q-.276.86-.8,2.088-.548,1.294-1.085,2.395a.746.746,0,0,0-.071.319q-.19,1.08,2.5,1.463a19.345,19.345,0,0,0,2.005.2h.035a6.847,6.847,0,0,0,1.923-.271,4.752,4.752,0,0,1,1.144-.2,3.271,3.271,0,0,1,1.463.861,3.853,3.853,0,0,0,2.407,1.215,7.5,7.5,0,0,0,1.651-.283.691.691,0,0,0,.142-.035,10.861,10.861,0,0,1,.319,2.666,10.059,10.059,0,0,1-3.067,7.4q-.235.236-.484.46-.511-.516-.79-.743l-.012-.012a3.508,3.508,0,0,0-2.289-.79,9.463,9.463,0,0,0-1.215.248q-.812.207-.908.224a2.409,2.409,0,0,1-1.18-.2,1.163,1.163,0,0,1-.13-.637.408.408,0,0,1,.165-.318.482.482,0,0,0,.071-.059q.07-.036.8-.448a3.306,3.306,0,0,0,1.793-3.091,1.854,1.854,0,0,0-.79-1.734,3.2,3.2,0,0,0-1.864-.4,5.336,5.336,0,0,0-1.935.283,2.777,2.777,0,0,0-1.486,1.321v.012a2.292,2.292,0,0,1-.661.59,2.2,2.2,0,0,1-1.109.437.063.063,0,1,1-.094-.083,4.56,4.56,0,0,0-1.239-2.159q-.438-.548-2.147-.625a16.874,16.874,0,0,1-2.348-.26A10.073,10.073,0,0,1,808.645,489.436Zm-3.032,8.281a18.463,18.463,0,0,0,2.277.236,3.021,3.021,0,0,1,1.191.2,3.2,3.2,0,0,1,.861,1.5,1.492,1.492,0,0,0,.389.8.058.058,0,0,1,.012.012,1.367,1.367,0,0,0,1.085.354,3.335,3.335,0,0,0,1.911-.684,3.1,3.1,0,0,0,1.132-1.121,1.373,1.373,0,0,1,.731-.649,4.284,4.284,0,0,1,1.416-.189,2.479,2.479,0,0,1,1.062.165v-.012a.8.8,0,0,1,.153.543,1.927,1.927,0,0,1-1.05,1.828q-.831.47-1.05.625l-.012.012a.08.08,0,0,1-.035.024l-.012.012A1.73,1.73,0,0,0,815,502.79a2.033,2.033,0,0,0,.625,1.722,3.028,3.028,0,0,0,2.123.554,7.614,7.614,0,0,0,1.25-.26q.829-.194.873-.212a2.066,2.066,0,0,1,1.38.472q.217.177.578.531a10.54,10.54,0,0,1-13.189-1.357,11.357,11.357,0,0,1-.8-.9l-.012-.012s0,0,0-.012a.124.124,0,0,1-.023-.012A9.949,9.949,0,0,1,805.613,497.717Zm18.273,16.032a.706.706,0,0,1,.519.212.734.734,0,0,1,.224.531.669.669,0,0,1-.224.507.011.011,0,0,1-.012.012.669.669,0,0,1-.507.224H810.674a.734.734,0,0,1-.531-.224.706.706,0,0,1-.212-.519.779.779,0,0,1,.2-.531.01.01,0,0,0,.012-.012.779.779,0,0,1,.531-.2h5.568l2.029-.083h.035Zm-6.972-1.475v-1.156q.322-.017.637-.047v1.18Zm1.557-2.772-.106.012a.053.053,0,0,1-.024.012l-.094.012h-.083l-.035.012a14.129,14.129,0,0,1-1.923.153h-.153a12.429,12.429,0,0,1-9.107-3.763l-.035-.035a3.494,3.494,0,0,1,.177-.991c.005,0,.009,0,.012-.012q.029-.069.059-.13.232.245.472.484a11.927,11.927,0,0,0,15.725,1l.024-.024a.048.048,0,0,0,.024-.024,13.54,13.54,0,0,0,1.062-.956,11.437,11.437,0,0,0,3.492-8.411,12.085,12.085,0,0,0-.566-3.728.379.379,0,0,0-.012-.059.191.191,0,0,0-.023-.035,11.548,11.548,0,0,0-2.89-4.6q-.242-.242-.5-.472.059-.061.118-.118a1.947,1.947,0,0,1,.826-.307q.12.108.236.224a12.9,12.9,0,0,1-6.677,21.753Z" transform="translate(-647.15 -80.939)" fill="#c16366"/>
    </g>
  </g>
</svg>
